<svg xmlns="http://www.w3.org/2000/svg" version="1.1" xmlns:xlink="http://www.w3.org/1999/xlink" xmlns:svgjs="http://svgjs.dev/svgjs" width="2000" height="1131" viewBox="0 0 2000 1131"><g transform="matrix(1,0,0,1,-1.2121212121212466,-0.6934068478775544)"><svg viewBox="0 0 396 224" data-background-color="#0b1913" preserveAspectRatio="xMidYMid meet" height="1131" width="2000" xmlns="http://www.w3.org/2000/svg" xmlns:xlink="http://www.w3.org/1999/xlink"><g id="tight-bounds" transform="matrix(1,0,0,1,0.2400000000000091,0.13733256757255674)"><svg viewBox="0 0 395.52 223.7253348648549" height="223.7253348648549" width="395.52"><g><svg viewBox="0 0 395.52 223.7253348648549" height="223.7253348648549" width="395.52"><g transform="matrix(1,0,0,1,0,174.38964075808158)"><svg viewBox="0 0 395.52 49.3356941067733" height="49.3356941067733" width="395.52"><g id="textblocktransform"><svg viewBox="0 0 395.52 49.3356941067733" height="49.3356941067733" width="395.52" id="textblock"><g><svg viewBox="0 0 395.52 49.3356941067733" height="49.3356941067733" width="395.52"><g transform="matrix(1,0,0,1,0,0)"><svg width="395.52" viewBox="0.99444455556 -37.8 311.02555544444 38.8" height="49.3356941067733" data-palette-color="url(#20f5b5ed-b74c-429d-8e5a-88008d3991fc)"></svg></g></svg></g></svg></g></svg></g><g transform="matrix(1,0,0,1,130.9192615887319,0)"><svg viewBox="0 0 133.68147682253615 162.74266743613097" height="162.74266743613097" width="133.68147682253615"><g><svg xmlns="http://www.w3.org/2000/svg" viewBox="64 32 368 448" x="0" y="0" height="162.74266743613097" width="133.68147682253615" class="icon-icon-0" data-fill-palette-color="accent" id="icon-0"></svg><g></g></g></svg></g><g></g></svg></g><defs></defs><mask id="ccf1817f-e662-4771-bcfb-f9c432c14d2b"><g id="SvgjsG5671"><svg viewBox="0 0 395.52 223.7253348648549" height="223.7253348648549" width="395.52"><g><svg viewBox="0 0 395.52 223.7253348648549" height="223.7253348648549" width="395.52"><g transform="matrix(1,0,0,1,0,174.38964075808158)"><svg viewBox="0 0 395.52 49.3356941067733" height="49.3356941067733" width="395.52"><g id="SvgjsG5670"><svg viewBox="0 0 395.52 49.3356941067733" height="49.3356941067733" width="395.52" id="SvgjsSvg5669"><g><svg viewBox="0 0 395.52 49.3356941067733" height="49.3356941067733" width="395.52"><g transform="matrix(1,0,0,1,0,0)"><svg width="395.52" viewBox="0.99444455556 -37.8 311.02555544444 38.8" height="49.3356941067733" data-palette-color="url(#20f5b5ed-b74c-429d-8e5a-88008d3991fc)"><path d="M24.7-13.25L32.85-34 32.85-35 35.85-35Q37.3-35 39.3-35.1 41.3-35.2 42.7-35.25L42.7-35.25Q42.85-34.3 42.6-33.5L42.6-33.5Q41.5-33.3 40.5-33.1 39.5-32.9 38.6-32.5L38.6-32.5 41.1-2.5 44.95-1.5Q45.1-0.55 44.7 0.25L44.7 0.25Q43.35 0.15 41.68 0.08 40 0 38.6 0L38.6 0Q37.2 0 35.18 0.08 33.15 0.15 31.75 0.25L31.75 0.25Q31.6-0.7 31.85-1.5L31.85-1.5Q32.95-1.7 34-1.85 35.05-2 35.85-2.5L35.85-2.5 33.75-24.4Q33.7-25.1 33.68-25.8 33.65-26.5 33.65-27.2L33.65-27.2Q33.65-27.75 33.65-28.35 33.65-28.95 33.7-29.5L33.7-29.5 33.55-29.5Q33.2-28.25 32.83-26.98 32.45-25.7 31.95-24.4L31.95-24.4 22.9-1.55Q21.95-1 21.1-1.05L21.1-1.05 11.25-24.4Q10.8-25.55 10.4-26.83 10-28.1 9.6-29.5L9.6-29.5 9.45-29.5 9.3-24.35 8.05-2.45 11.9-1.45Q12.05-0.5 11.65 0.3L11.65 0.3Q10.3 0.2 9.05 0.1 7.8 0 6.4 0L6.4 0Q5 0 3.73 0.08 2.45 0.15 1.05 0.25L1.05 0.25Q0.9-0.7 1.15-1.5L1.15-1.5Q2.15-1.65 3.13-1.9 4.1-2.15 5.05-2.5L5.05-2.5 7.05-32.5 3.2-33.5Q3.05-34.45 3.45-35.25L3.45-35.25Q4.8-35.2 6.48-35.1 8.15-35 9.55-35L9.55-35 12.8-35 12.8-34 20.95-13.25Q21.6-11.7 22-10.3 22.4-8.9 22.75-7.35L22.75-7.35 22.85-7.35Q23.25-8.95 23.7-10.38 24.15-11.8 24.7-13.25L24.7-13.25ZM47.7-12.5L47.7-12.5Q47.7-16.4 49.22-19.45 50.75-22.5 53.6-24.25 56.45-26 60.3-26L60.3-26Q64.2-26 67.02-24.25 69.85-22.5 71.37-19.45 72.9-16.4 72.9-12.5L72.9-12.5Q72.9-8.5 71.37-5.45 69.85-2.4 67.02-0.7 64.2 1 60.3 1L60.3 1Q56.45 1 53.6-0.7 50.75-2.4 49.22-5.45 47.7-8.5 47.7-12.5ZM67.5-11.8L67.5-11.8Q67.5-15.15 66.75-17.88 66-20.6 64.4-22.23 62.8-23.85 60.2-23.85L60.2-23.85Q57.55-23.85 55.97-22.25 54.4-20.65 53.75-18 53.1-15.35 53.1-12.15L53.1-12.15Q53.1-9.25 53.85-6.73 54.6-4.2 56.22-2.68 57.85-1.15 60.4-1.15L60.4-1.15Q63.1-1.15 64.65-2.65 66.2-4.15 66.85-6.6 67.5-9.05 67.5-11.8ZM76.5-12.5L76.5-12.5Q76.5-16.4 78.02-19.45 79.55-22.5 82.4-24.25 85.25-26 89.1-26L89.1-26Q93-26 95.82-24.25 98.65-22.5 100.17-19.45 101.7-16.4 101.7-12.5L101.7-12.5Q101.7-8.5 100.17-5.45 98.65-2.4 95.82-0.7 93 1 89.1 1L89.1 1Q85.25 1 82.4-0.7 79.55-2.4 78.02-5.45 76.5-8.5 76.5-12.5ZM96.3-11.8L96.3-11.8Q96.3-15.15 95.55-17.88 94.8-20.6 93.2-22.23 91.6-23.85 89-23.85L89-23.85Q86.35-23.85 84.77-22.25 83.2-20.65 82.55-18 81.9-15.35 81.9-12.15L81.9-12.15Q81.9-9.25 82.65-6.73 83.4-4.2 85.02-2.68 86.65-1.15 89.2-1.15L89.2-1.15Q91.9-1.15 93.45-2.65 95-4.15 95.65-6.6 96.3-9.05 96.3-11.8ZM113.24-25.05L113.09-21.65 113.14-21.6Q115.54-24 118.09-24.9 120.64-25.8 122.54-25.8L122.54-25.8Q125.79-25.8 127.67-23.95 129.54-22.1 129.54-18.55L129.54-18.55 129.59-2.5 133.09-1.5Q133.24-0.55 132.84 0.25L132.84 0.25Q131.49 0.15 129.99 0.08 128.49 0 127.09 0L127.09 0Q125.69 0 124.14 0.08 122.59 0.15 121.19 0.25L121.19 0.25Q121.04-0.7 121.29-1.5L121.29-1.5Q122.29-1.7 123.07-1.95 123.84-2.2 124.59-2.5L124.59-2.5 124.59-16.3Q124.59-19.7 123.54-21 122.49-22.3 120.19-22.3L120.19-22.3Q118.34-22.3 116.59-21.58 114.84-20.85 113.49-19.3L113.49-19.3 113.49-2.5 116.84-1.5Q116.99-0.55 116.59 0.25L116.59 0.25Q115.24 0.15 113.82 0.08 112.39 0 110.99 0L110.99 0Q109.59 0 107.94 0.08 106.29 0.15 104.89 0.25L104.89 0.25Q104.74-0.7 104.99-1.5L104.99-1.5Q105.89-1.75 106.79-1.98 107.69-2.2 108.49-2.5L108.49-2.5 108.49-22 104.34-22.4Q104.19-23.4 104.59-24.15L104.59-24.15Q106.44-24.45 108.19-24.8 109.94-25.15 111.54-25.5L111.54-25.5Q112.39-25.45 113.24-25.05L113.24-25.05ZM143.09-37.25L143.09-2.5 146.94-1.5Q147.09-0.55 146.69 0.25L146.69 0.25Q145.34 0.15 143.67 0.08 141.99 0 140.59 0L140.59 0Q139.19 0 137.54 0.08 135.89 0.15 134.49 0.25L134.49 0.25Q134.34-0.7 134.59-1.5L134.59-1.5Q135.54-1.75 136.47-1.95 137.39-2.15 138.09-2.5L138.09-2.5 138.09-34.3 133.94-34.7Q133.79-35.7 134.19-36.45L134.19-36.45Q135.99-36.7 137.82-37.05 139.64-37.4 141.19-37.8L141.19-37.8Q141.69-37.75 142.14-37.63 142.59-37.5 143.09-37.25L143.09-37.25ZM157.79-24.95L157.79-2.5 161.14-1.5Q161.29-0.55 160.89 0.25L160.89 0.25Q159.54 0.15 158.11 0.08 156.69 0 155.29 0L155.29 0Q153.89 0 152.24 0.08 150.59 0.15 149.19 0.25L149.19 0.25Q149.04-0.7 149.29-1.5L149.29-1.5Q150.24-1.75 151.16-1.95 152.09-2.15 152.79-2.5L152.79-2.5 152.79-22 148.64-22.4Q148.49-23.4 148.89-24.15L148.89-24.15Q150.69-24.4 152.51-24.75 154.34-25.1 155.89-25.5L155.89-25.5Q156.39-25.45 156.84-25.33 157.29-25.2 157.79-24.95L157.79-24.95ZM154.44-30.05L154.44-30.05Q153.59-30.05 152.89-30.6 152.19-31.15 151.79-31.95 151.39-32.75 151.39-33.45L151.39-33.45Q151.39-34.1 151.94-34.77 152.49-35.45 153.31-35.93 154.14-36.4 154.94-36.4L154.94-36.4Q155.84-36.4 156.54-35.83 157.24-35.25 157.61-34.48 157.99-33.7 157.99-33L157.99-33Q157.99-32.35 157.46-31.65 156.94-30.95 156.11-30.5 155.29-30.05 154.44-30.05ZM172.24 0.8L172.24 0.8Q170.64 0.8 169.34 0.2 168.03-0.4 167.31-1.88 166.59-3.35 166.59-5.95L166.59-5.95 166.59-21.9 163.09-21.9Q162.78-22.45 162.76-23.03 162.74-23.6 162.84-24.15L162.84-24.15Q164.94-24.15 165.99-24.7 167.03-25.25 167.61-26.6 168.19-27.95 168.84-30.25L168.84-30.25 171.49-30.25 171.49-24.65 176.74-24.65Q177.44-23.2 176.74-21.9L176.74-21.9 171.49-21.9 171.49-7.2Q171.49-4.9 171.71-3.73 171.94-2.55 172.49-2.13 173.03-1.7 173.99-1.7L173.99-1.7Q174.78-1.7 175.53-2 176.28-2.3 176.99-2.7L176.99-2.7Q177.69-2.25 177.74-1.2L177.74-1.2Q177.19-0.55 175.74 0.13 174.28 0.8 172.24 0.8ZM202.88-2.5L202.88-32.75 195.08-32.75 193.63-25.6Q193.03-25.55 192.58-25.55 192.13-25.55 191.63-25.75L191.63-25.75Q191.43-27.9 191.26-30.18 191.08-32.45 191.13-35L191.13-35 220.38-35Q220.48-32.7 220.31-30.4 220.13-28.1 219.83-25.75L219.83-25.75Q219.33-25.55 218.88-25.55 218.43-25.55 217.83-25.6L217.83-25.6 216.38-32.75 208.13-32.75 208.13-2.5 212.28-1.5Q212.43-0.55 212.03 0.25L212.03 0.25Q210.68 0.15 208.86 0.08 207.03 0 205.63 0L205.63 0Q204.23 0 202.21 0.08 200.18 0.15 198.78 0.25L198.78 0.25Q198.63-0.7 198.88-1.5L198.88-1.5Q200.03-1.65 200.98-1.9 201.93-2.15 202.88-2.5L202.88-2.5ZM229.83 0.85L229.83 0.85Q226.83 0.85 224.78-0.73 222.73-2.3 222.73-5.5L222.73-5.5Q222.73-8 223.95-9.6 225.18-11.2 227.25-12.08 229.33-12.95 231.88-13.25 234.43-13.55 237.08-13.5L237.08-13.5 237.13-17.9Q237.18-20.7 236.08-22.23 234.98-23.75 232.73-23.75L232.73-23.75Q231.48-23.75 230.33-23.58 229.18-23.4 228.03-23L228.03-23 227.38-17.7Q226.98-17.5 226.28-17.48 225.58-17.45 225.18-17.5L225.18-17.5Q224.73-19.15 224.43-20.8 224.13-22.45 224.18-24L224.18-24Q226.53-25.1 228.9-25.55 231.28-26 234.08-26L234.08-26Q236.88-26 238.6-25.1 240.33-24.2 241.15-22 241.98-19.8 241.98-15.85L241.98-15.85 241.98-2.45Q242.83-2.05 243.73-1.88 244.63-1.7 245.48-1.45L245.48-1.45Q245.63-0.5 245.23 0.3L245.23 0.3Q244.43 0.45 243.3 0.55 242.18 0.65 241.03 0.65L241.03 0.65Q239.38 0.65 238.18 0.35L238.18 0.35 237.48-2.25 237.28-2.25Q236.03-0.95 234.18-0.05 232.33 0.85 229.83 0.85ZM231.73-1.9L231.73-1.9Q233.13-1.9 234.73-2.78 236.33-3.65 237.08-4.75L237.08-4.75 237.08-11.5Q231.93-11.5 229.83-10.28 227.73-9.05 227.73-6L227.73-6Q227.73-3.95 228.83-2.93 229.93-1.9 231.73-1.9ZM256.03-16.85L256.03-2.5 260.88-1.5Q261.03-0.55 260.63 0.25L260.63 0.25Q259.73 0.2 258.4 0.15 257.08 0.1 255.78 0.05 254.48 0 253.53 0L253.53 0Q252.13 0 250.48 0.08 248.83 0.15 247.43 0.25L247.43 0.25Q247.28-0.7 247.53-1.5L247.53-1.5Q248.48-1.75 249.4-1.95 250.33-2.15 251.03-2.5L251.03-2.5 251.03-22 246.88-22.4Q246.73-23.4 247.13-24.15L247.13-24.15Q248.93-24.4 250.75-24.75 252.58-25.1 254.13-25.5L254.13-25.5Q254.63-25.45 254.95-25.33 255.28-25.2 255.78-24.95L255.78-24.95 255.78-20.4 255.83-20.35Q257.38-22.65 259.3-24.25 261.23-25.85 263.43-25.85L263.43-25.85Q264.28-25.85 265.1-25.73 265.93-25.6 266.73-25.1L266.73-25.1Q266.83-23.05 266.55-21.2 266.28-19.35 265.73-17.6L265.73-17.6Q265.38-17.55 264.63-17.57 263.88-17.6 263.48-17.8L263.48-17.8 262.78-22.8Q261.03-22.8 259.25-21.53 257.48-20.25 256.03-16.85L256.03-16.85ZM269.37-12.5L269.37-12.5Q269.37-16.4 270.9-19.45 272.42-22.5 275.27-24.25 278.12-26 281.97-26L281.97-26Q285.87-26 288.7-24.25 291.52-22.5 293.05-19.45 294.57-16.4 294.57-12.5L294.57-12.5Q294.57-8.5 293.05-5.45 291.52-2.4 288.7-0.7 285.87 1 281.97 1L281.97 1Q278.12 1 275.27-0.7 272.42-2.4 270.9-5.45 269.37-8.5 269.37-12.5ZM289.17-11.8L289.17-11.8Q289.17-15.15 288.42-17.88 287.67-20.6 286.07-22.23 284.47-23.85 281.87-23.85L281.87-23.85Q279.22-23.85 277.65-22.25 276.07-20.65 275.42-18 274.77-15.35 274.77-12.15L274.77-12.15Q274.77-9.25 275.52-6.73 276.27-4.2 277.9-2.68 279.52-1.15 282.07-1.15L282.07-1.15Q284.77-1.15 286.32-2.65 287.87-4.15 288.52-6.6 289.17-9.05 289.17-11.8ZM306.52 0.8L306.52 0.8Q304.92 0.8 303.62 0.2 302.32-0.4 301.6-1.88 300.87-3.35 300.87-5.95L300.87-5.95 300.87-21.9 297.37-21.9Q297.07-22.45 297.05-23.03 297.02-23.6 297.12-24.15L297.12-24.15Q299.22-24.15 300.27-24.7 301.32-25.25 301.9-26.6 302.47-27.95 303.12-30.25L303.12-30.25 305.77-30.25 305.77-24.65 311.02-24.65Q311.72-23.2 311.02-21.9L311.02-21.9 305.77-21.9 305.77-7.2Q305.77-4.9 306-3.73 306.22-2.55 306.77-2.13 307.32-1.7 308.27-1.7L308.27-1.7Q309.07-1.7 309.82-2 310.57-2.3 311.27-2.7L311.27-2.7Q311.97-2.25 312.02-1.2L312.02-1.2Q311.47-0.55 310.02 0.13 308.57 0.8 306.52 0.8Z" opacity="1" transform="matrix(1,0,0,1,0,0)" fill="white" class="wordmark-text-0" id="SvgjsPath5668"></path></svg></g></svg></g></svg></g></svg></g><g transform="matrix(1,0,0,1,130.9192615887319,0)"><svg viewBox="0 0 133.68147682253615 162.74266743613097" height="162.74266743613097" width="133.68147682253615"><g><svg xmlns="http://www.w3.org/2000/svg" viewBox="64 32 368 448" x="0" y="0" height="162.74266743613097" width="133.68147682253615" class="icon-icon-0" data-fill-palette-color="accent" id="SvgjsSvg5667"><g fill="black"><path d="M228.739 306.767L242.257 330.257 218.766 316.738A8 8 0 0 0 206.922 322.151L200 357.907 193.078 322.151A8 8 0 0 0 181.234 316.738L157.743 330.257 171.261 306.767A8 8 0 0 0 166.861 295.187L145.3 288 166.86 280.813A8 8 0 0 0 171.26 269.233L157.742 245.743 181.233 259.262A8 8 0 0 0 193.077 253.849L200 218.093 206.922 253.849A8 8 0 0 0 218.766 259.262L242.257 245.743 228.739 269.233A8 8 0 0 0 233.139 280.813L254.7 288 233.14 295.187A8 8 0 0 0 228.74 306.767ZM304 166.987V425.013A32.12 32.12 0 0 0 281.012 448H118.988A32.12 32.12 0 0 0 96 425.013V166.987A32.12 32.12 0 0 0 118.988 144H281.012A32.12 32.12 0 0 0 304 166.987M272 208H288V192H272ZM272 264H288V248H272ZM232 184H248V168H232ZM152 208H168V192H152ZM112 192H128V176H112ZM112 264H128V248H112ZM128 376H112V392H128ZM176 400H160V416H176ZM248 416H232V432H248ZM270.934 348.01L247.489 307.271 282.53 295.59A8 8 0 0 0 282.53 280.41L247.489 268.729 270.934 227.99A8 8 0 0 0 260.01 217.066L220.5 239.8 207.854 174.475A8 8 0 0 0 192.146 174.475L179.5 239.8 139.99 217.062A8 8 0 0 0 129.066 227.986L152.511 268.725 117.47 280.41A8 8 0 0 0 117.47 295.59L152.511 307.271 129.066 348.01A8 8 0 0 0 139.99 358.934L179.5 336.2 192.146 401.525A8 8 0 0 0 207.854 401.525L220.5 336.2 260.01 358.938A8 8 0 0 0 270.934 348.014ZM296 376H280V392H296ZM336 128V464A16.02 16.02 0 0 1 320 480H80A16.02 16.02 0 0 1 64 464V128A16.02 16.02 0 0 1 80 112H320A16.02 16.02 0 0 1 336 128M320 160A8 8 0 0 0 312 152 16.02 16.02 0 0 1 296 136 8 8 0 0 0 288 128H112A8 8 0 0 0 104 136 16.02 16.02 0 0 1 88 152 8 8 0 0 0 80 160V432A8 8 0 0 0 88 440 16.02 16.02 0 0 1 104 456 8 8 0 0 0 112 464H288A8 8 0 0 0 296 456 16.02 16.02 0 0 1 312 440 8 8 0 0 0 320 432ZM416 32H176A16.02 16.02 0 0 0 160 48V96H176V80A8 8 0 0 1 184 72 16 16 0 0 0 200 56 8 8 0 0 1 208 48H384A8 8 0 0 1 392 56 16 16 0 0 0 408 72 8 8 0 0 1 416 80V352A8 8 0 0 1 408 360 16 16 0 0 0 392 376 8 8 0 0 1 384 384H352V400H416A16.02 16.02 0 0 0 432 384V48A16.02 16.02 0 0 0 416 32M352 368H377A32.09 32.09 0 0 1 400 345V87A32.08 32.08 0 0 1 377 64H215A32.09 32.09 0 0 1 192 87V96H320A32.036 32.036 0 0 1 352 128Z" fill="black"></path></g></svg><g></g></g></svg></g><g></g></svg></g><defs><mask></mask></defs></svg><rect width="395.52" height="223.7253348648549" fill="black" stroke="none" visibility="hidden"></rect></g></mask><linearGradient x1="0.054" x2="0.941" y1="0.5" y2="0.5" id="20f5b5ed-b74c-429d-8e5a-88008d3991fc"><stop stop-color="#9c7945" offset="0"></stop><stop stop-color="#faf3aa" offset="0.498"></stop><stop stop-color="#9c7945" offset="1"></stop></linearGradient><rect width="395.52" height="223.7253348648549" fill="#000000" mask="url(#ccf1817f-e662-4771-bcfb-f9c432c14d2b)" data-fill-palette-color="primary"></rect><mask id="c66429a3-b8b5-4629-9c2c-0a5c6de23f37"><g id="SvgjsG5680"><svg viewBox="0 0 395.52 223.7253348648549" height="223.7253348648549" width="395.52"><g><svg viewBox="0 0 395.52 223.7253348648549" height="223.7253348648549" width="395.52"><g transform="matrix(1,0,0,1,0,174.38964075808158)"><svg viewBox="0 0 395.52 49.3356941067733" height="49.3356941067733" width="395.52"><g id="SvgjsG5679"><svg viewBox="0 0 395.52 49.3356941067733" height="49.3356941067733" width="395.52" id="SvgjsSvg5678"><g><svg viewBox="0 0 395.52 49.3356941067733" height="49.3356941067733" width="395.52"><g transform="matrix(1,0,0,1,0,0)"><svg width="395.52" viewBox="0.99444455556 -37.8 311.02555544444 38.8" height="49.3356941067733" data-palette-color="url(#20f5b5ed-b74c-429d-8e5a-88008d3991fc)"></svg></g></svg></g></svg></g></svg></g><g transform="matrix(1,0,0,1,130.9192615887319,0)"><svg viewBox="0 0 133.68147682253615 162.74266743613097" height="162.74266743613097" width="133.68147682253615"><g><svg xmlns="http://www.w3.org/2000/svg" viewBox="64 32 368 448" x="0" y="0" height="162.74266743613097" width="133.68147682253615" class="icon-icon-0" data-fill-palette-color="accent" id="SvgjsSvg5677"><g fill="white"><path d="M228.739 306.767L242.257 330.257 218.766 316.738A8 8 0 0 0 206.922 322.151L200 357.907 193.078 322.151A8 8 0 0 0 181.234 316.738L157.743 330.257 171.261 306.767A8 8 0 0 0 166.861 295.187L145.3 288 166.86 280.813A8 8 0 0 0 171.26 269.233L157.742 245.743 181.233 259.262A8 8 0 0 0 193.077 253.849L200 218.093 206.922 253.849A8 8 0 0 0 218.766 259.262L242.257 245.743 228.739 269.233A8 8 0 0 0 233.139 280.813L254.7 288 233.14 295.187A8 8 0 0 0 228.74 306.767ZM304 166.987V425.013A32.12 32.12 0 0 0 281.012 448H118.988A32.12 32.12 0 0 0 96 425.013V166.987A32.12 32.12 0 0 0 118.988 144H281.012A32.12 32.12 0 0 0 304 166.987M272 208H288V192H272ZM272 264H288V248H272ZM232 184H248V168H232ZM152 208H168V192H152ZM112 192H128V176H112ZM112 264H128V248H112ZM128 376H112V392H128ZM176 400H160V416H176ZM248 416H232V432H248ZM270.934 348.01L247.489 307.271 282.53 295.59A8 8 0 0 0 282.53 280.41L247.489 268.729 270.934 227.99A8 8 0 0 0 260.01 217.066L220.5 239.8 207.854 174.475A8 8 0 0 0 192.146 174.475L179.5 239.8 139.99 217.062A8 8 0 0 0 129.066 227.986L152.511 268.725 117.47 280.41A8 8 0 0 0 117.47 295.59L152.511 307.271 129.066 348.01A8 8 0 0 0 139.99 358.934L179.5 336.2 192.146 401.525A8 8 0 0 0 207.854 401.525L220.5 336.2 260.01 358.938A8 8 0 0 0 270.934 348.014ZM296 376H280V392H296ZM336 128V464A16.02 16.02 0 0 1 320 480H80A16.02 16.02 0 0 1 64 464V128A16.02 16.02 0 0 1 80 112H320A16.02 16.02 0 0 1 336 128M320 160A8 8 0 0 0 312 152 16.02 16.02 0 0 1 296 136 8 8 0 0 0 288 128H112A8 8 0 0 0 104 136 16.02 16.02 0 0 1 88 152 8 8 0 0 0 80 160V432A8 8 0 0 0 88 440 16.02 16.02 0 0 1 104 456 8 8 0 0 0 112 464H288A8 8 0 0 0 296 456 16.02 16.02 0 0 1 312 440 8 8 0 0 0 320 432ZM416 32H176A16.02 16.02 0 0 0 160 48V96H176V80A8 8 0 0 1 184 72 16 16 0 0 0 200 56 8 8 0 0 1 208 48H384A8 8 0 0 1 392 56 16 16 0 0 0 408 72 8 8 0 0 1 416 80V352A8 8 0 0 1 408 360 16 16 0 0 0 392 376 8 8 0 0 1 384 384H352V400H416A16.02 16.02 0 0 0 432 384V48A16.02 16.02 0 0 0 416 32M352 368H377A32.09 32.09 0 0 1 400 345V87A32.08 32.08 0 0 1 377 64H215A32.09 32.09 0 0 1 192 87V96H320A32.036 32.036 0 0 1 352 128Z" fill="white"></path></g></svg><g></g></g></svg></g><g></g></svg></g><defs><mask></mask></defs><mask><g id="SvgjsG5676"><svg viewBox="0 0 395.52 223.7253348648549" height="223.7253348648549" width="395.52"><g><svg viewBox="0 0 395.52 223.7253348648549" height="223.7253348648549" width="395.52"><g transform="matrix(1,0,0,1,0,174.38964075808158)"><svg viewBox="0 0 395.52 49.3356941067733" height="49.3356941067733" width="395.52"><g id="SvgjsG5675"><svg viewBox="0 0 395.52 49.3356941067733" height="49.3356941067733" width="395.52" id="SvgjsSvg5674"><g><svg viewBox="0 0 395.52 49.3356941067733" height="49.3356941067733" width="395.52"><g transform="matrix(1,0,0,1,0,0)"><svg width="395.52" viewBox="0.99444455556 -37.8 311.02555544444 38.8" height="49.3356941067733" data-palette-color="url(#20f5b5ed-b74c-429d-8e5a-88008d3991fc)"><path d="M24.7-13.25L32.85-34 32.85-35 35.85-35Q37.3-35 39.3-35.1 41.3-35.2 42.7-35.25L42.7-35.25Q42.85-34.3 42.6-33.5L42.6-33.5Q41.5-33.3 40.5-33.1 39.5-32.9 38.6-32.5L38.6-32.5 41.1-2.5 44.95-1.5Q45.1-0.55 44.7 0.25L44.7 0.25Q43.35 0.15 41.68 0.08 40 0 38.6 0L38.6 0Q37.2 0 35.18 0.08 33.15 0.15 31.75 0.25L31.75 0.25Q31.6-0.7 31.85-1.5L31.85-1.5Q32.95-1.7 34-1.85 35.05-2 35.85-2.5L35.85-2.5 33.75-24.4Q33.7-25.1 33.68-25.8 33.65-26.5 33.65-27.2L33.65-27.2Q33.65-27.75 33.65-28.35 33.65-28.95 33.7-29.5L33.7-29.5 33.55-29.5Q33.2-28.25 32.83-26.98 32.45-25.7 31.95-24.4L31.95-24.4 22.9-1.55Q21.95-1 21.1-1.05L21.1-1.05 11.25-24.4Q10.8-25.55 10.4-26.83 10-28.1 9.6-29.5L9.6-29.5 9.45-29.5 9.3-24.35 8.05-2.45 11.9-1.45Q12.05-0.5 11.65 0.3L11.65 0.3Q10.3 0.2 9.05 0.1 7.8 0 6.4 0L6.4 0Q5 0 3.73 0.08 2.45 0.15 1.05 0.25L1.05 0.25Q0.9-0.7 1.15-1.5L1.15-1.5Q2.15-1.65 3.13-1.9 4.1-2.15 5.05-2.5L5.05-2.5 7.05-32.5 3.2-33.5Q3.05-34.45 3.45-35.25L3.45-35.25Q4.8-35.2 6.48-35.1 8.15-35 9.55-35L9.55-35 12.8-35 12.8-34 20.95-13.25Q21.6-11.7 22-10.3 22.4-8.9 22.75-7.35L22.75-7.35 22.85-7.35Q23.25-8.95 23.7-10.38 24.15-11.8 24.7-13.25L24.7-13.25ZM47.7-12.5L47.7-12.5Q47.7-16.4 49.22-19.45 50.75-22.5 53.6-24.25 56.45-26 60.3-26L60.3-26Q64.2-26 67.02-24.25 69.85-22.5 71.37-19.45 72.9-16.4 72.9-12.5L72.9-12.5Q72.9-8.5 71.37-5.45 69.85-2.4 67.02-0.7 64.2 1 60.3 1L60.3 1Q56.45 1 53.6-0.7 50.75-2.4 49.22-5.45 47.7-8.5 47.7-12.5ZM67.5-11.8L67.5-11.8Q67.5-15.15 66.75-17.88 66-20.6 64.4-22.23 62.8-23.85 60.2-23.85L60.2-23.85Q57.55-23.85 55.97-22.25 54.4-20.65 53.75-18 53.1-15.35 53.1-12.15L53.1-12.15Q53.1-9.25 53.85-6.73 54.6-4.2 56.22-2.68 57.85-1.15 60.4-1.15L60.4-1.15Q63.1-1.15 64.65-2.65 66.2-4.15 66.85-6.6 67.5-9.05 67.5-11.8ZM76.5-12.5L76.5-12.5Q76.5-16.4 78.02-19.45 79.55-22.5 82.4-24.25 85.25-26 89.1-26L89.1-26Q93-26 95.82-24.25 98.65-22.5 100.17-19.45 101.7-16.4 101.7-12.5L101.7-12.5Q101.7-8.5 100.17-5.45 98.65-2.4 95.82-0.7 93 1 89.1 1L89.1 1Q85.25 1 82.4-0.7 79.55-2.4 78.02-5.45 76.5-8.5 76.5-12.5ZM96.3-11.8L96.3-11.8Q96.3-15.15 95.55-17.88 94.8-20.6 93.2-22.23 91.6-23.85 89-23.85L89-23.85Q86.35-23.85 84.77-22.25 83.2-20.65 82.55-18 81.9-15.35 81.9-12.15L81.9-12.15Q81.9-9.25 82.65-6.73 83.4-4.2 85.02-2.68 86.65-1.15 89.2-1.15L89.2-1.15Q91.9-1.15 93.45-2.65 95-4.15 95.65-6.6 96.3-9.05 96.3-11.8ZM113.24-25.05L113.09-21.65 113.14-21.6Q115.54-24 118.09-24.9 120.64-25.8 122.54-25.8L122.54-25.8Q125.79-25.8 127.67-23.95 129.54-22.1 129.54-18.55L129.54-18.55 129.59-2.5 133.09-1.5Q133.24-0.55 132.84 0.25L132.84 0.25Q131.49 0.15 129.99 0.08 128.49 0 127.09 0L127.09 0Q125.69 0 124.14 0.08 122.59 0.15 121.19 0.25L121.19 0.25Q121.04-0.7 121.29-1.5L121.29-1.5Q122.29-1.7 123.07-1.95 123.84-2.2 124.59-2.5L124.59-2.5 124.59-16.3Q124.59-19.7 123.54-21 122.49-22.3 120.19-22.3L120.19-22.3Q118.34-22.3 116.59-21.58 114.84-20.85 113.49-19.3L113.49-19.3 113.49-2.5 116.84-1.5Q116.99-0.55 116.59 0.25L116.59 0.25Q115.24 0.15 113.82 0.08 112.39 0 110.99 0L110.99 0Q109.59 0 107.94 0.08 106.29 0.15 104.89 0.25L104.89 0.25Q104.74-0.7 104.99-1.5L104.99-1.5Q105.89-1.75 106.79-1.98 107.69-2.2 108.49-2.5L108.49-2.5 108.49-22 104.34-22.4Q104.19-23.4 104.59-24.15L104.59-24.15Q106.44-24.45 108.19-24.8 109.94-25.15 111.54-25.5L111.54-25.5Q112.39-25.45 113.24-25.05L113.24-25.05ZM143.09-37.25L143.09-2.5 146.94-1.5Q147.09-0.55 146.69 0.25L146.69 0.25Q145.34 0.15 143.67 0.08 141.99 0 140.59 0L140.59 0Q139.19 0 137.54 0.08 135.89 0.15 134.49 0.25L134.49 0.25Q134.34-0.7 134.59-1.5L134.59-1.5Q135.54-1.75 136.47-1.95 137.39-2.15 138.09-2.5L138.09-2.5 138.09-34.3 133.94-34.7Q133.79-35.7 134.19-36.45L134.19-36.45Q135.99-36.7 137.82-37.05 139.64-37.4 141.19-37.8L141.19-37.8Q141.69-37.75 142.14-37.63 142.59-37.5 143.09-37.25L143.09-37.25ZM157.79-24.95L157.79-2.5 161.14-1.5Q161.29-0.55 160.89 0.25L160.89 0.25Q159.54 0.15 158.11 0.08 156.69 0 155.29 0L155.29 0Q153.89 0 152.24 0.08 150.59 0.15 149.19 0.25L149.19 0.25Q149.04-0.7 149.29-1.5L149.29-1.5Q150.24-1.75 151.16-1.95 152.09-2.15 152.79-2.5L152.79-2.5 152.79-22 148.64-22.4Q148.49-23.4 148.89-24.15L148.89-24.15Q150.69-24.4 152.51-24.75 154.34-25.1 155.89-25.5L155.89-25.5Q156.39-25.45 156.84-25.33 157.29-25.2 157.79-24.95L157.79-24.95ZM154.44-30.05L154.44-30.05Q153.59-30.05 152.89-30.6 152.19-31.15 151.79-31.95 151.39-32.75 151.39-33.45L151.39-33.45Q151.39-34.1 151.94-34.77 152.49-35.45 153.31-35.93 154.14-36.4 154.94-36.4L154.94-36.4Q155.84-36.4 156.54-35.83 157.24-35.25 157.61-34.48 157.99-33.7 157.99-33L157.99-33Q157.99-32.35 157.46-31.65 156.94-30.95 156.11-30.5 155.29-30.05 154.44-30.05ZM172.24 0.8L172.24 0.8Q170.64 0.8 169.34 0.2 168.03-0.4 167.31-1.88 166.59-3.35 166.59-5.95L166.59-5.95 166.59-21.9 163.09-21.9Q162.78-22.45 162.76-23.03 162.74-23.6 162.84-24.15L162.84-24.15Q164.94-24.15 165.99-24.7 167.03-25.25 167.61-26.6 168.19-27.95 168.84-30.25L168.84-30.25 171.49-30.25 171.49-24.65 176.74-24.65Q177.44-23.2 176.74-21.9L176.74-21.9 171.49-21.9 171.49-7.2Q171.49-4.9 171.71-3.73 171.94-2.55 172.49-2.13 173.03-1.7 173.99-1.7L173.99-1.7Q174.78-1.7 175.53-2 176.28-2.3 176.99-2.7L176.99-2.7Q177.69-2.25 177.74-1.2L177.74-1.2Q177.19-0.55 175.74 0.13 174.28 0.8 172.24 0.8ZM202.88-2.5L202.88-32.75 195.08-32.75 193.63-25.6Q193.03-25.55 192.58-25.55 192.13-25.55 191.63-25.75L191.63-25.75Q191.43-27.9 191.26-30.18 191.08-32.45 191.13-35L191.13-35 220.38-35Q220.48-32.7 220.31-30.4 220.13-28.1 219.83-25.75L219.83-25.75Q219.33-25.55 218.88-25.55 218.43-25.55 217.83-25.6L217.83-25.6 216.38-32.75 208.13-32.75 208.13-2.5 212.28-1.5Q212.43-0.55 212.03 0.25L212.03 0.25Q210.68 0.15 208.86 0.08 207.03 0 205.63 0L205.63 0Q204.23 0 202.21 0.08 200.18 0.15 198.78 0.25L198.78 0.25Q198.63-0.7 198.88-1.5L198.88-1.5Q200.03-1.65 200.98-1.9 201.93-2.15 202.88-2.5L202.88-2.5ZM229.83 0.85L229.83 0.85Q226.83 0.85 224.78-0.73 222.73-2.3 222.73-5.5L222.73-5.5Q222.73-8 223.95-9.6 225.18-11.2 227.25-12.08 229.33-12.95 231.88-13.25 234.43-13.55 237.08-13.5L237.08-13.5 237.13-17.9Q237.18-20.7 236.08-22.23 234.98-23.75 232.73-23.75L232.73-23.75Q231.48-23.75 230.33-23.58 229.18-23.4 228.03-23L228.03-23 227.38-17.7Q226.98-17.5 226.28-17.48 225.58-17.45 225.18-17.5L225.18-17.5Q224.73-19.15 224.43-20.8 224.13-22.45 224.18-24L224.18-24Q226.53-25.1 228.9-25.55 231.28-26 234.08-26L234.08-26Q236.88-26 238.6-25.1 240.33-24.2 241.15-22 241.98-19.8 241.98-15.85L241.98-15.85 241.98-2.45Q242.83-2.05 243.73-1.88 244.63-1.7 245.48-1.45L245.48-1.45Q245.63-0.5 245.23 0.3L245.23 0.3Q244.43 0.45 243.3 0.55 242.18 0.65 241.03 0.65L241.03 0.65Q239.38 0.65 238.18 0.35L238.18 0.35 237.48-2.25 237.28-2.25Q236.03-0.95 234.18-0.05 232.33 0.85 229.83 0.85ZM231.73-1.9L231.73-1.9Q233.13-1.9 234.73-2.78 236.33-3.65 237.08-4.75L237.08-4.75 237.08-11.5Q231.93-11.5 229.83-10.28 227.73-9.05 227.73-6L227.73-6Q227.73-3.95 228.83-2.93 229.93-1.9 231.73-1.9ZM256.03-16.85L256.03-2.5 260.88-1.5Q261.03-0.55 260.63 0.25L260.63 0.25Q259.73 0.2 258.4 0.15 257.08 0.1 255.78 0.05 254.48 0 253.53 0L253.53 0Q252.13 0 250.48 0.08 248.83 0.15 247.43 0.25L247.43 0.25Q247.28-0.7 247.53-1.5L247.53-1.5Q248.48-1.75 249.4-1.95 250.33-2.15 251.03-2.5L251.03-2.5 251.03-22 246.88-22.4Q246.73-23.4 247.13-24.15L247.13-24.15Q248.93-24.4 250.75-24.75 252.58-25.1 254.13-25.5L254.13-25.5Q254.63-25.45 254.95-25.33 255.28-25.2 255.78-24.95L255.78-24.95 255.78-20.4 255.83-20.35Q257.38-22.65 259.3-24.25 261.23-25.85 263.43-25.85L263.43-25.85Q264.28-25.85 265.1-25.73 265.93-25.6 266.73-25.1L266.73-25.1Q266.83-23.05 266.55-21.2 266.28-19.35 265.73-17.6L265.73-17.6Q265.38-17.55 264.63-17.57 263.88-17.6 263.48-17.8L263.48-17.8 262.78-22.8Q261.03-22.8 259.25-21.53 257.48-20.25 256.03-16.85L256.03-16.85ZM269.37-12.5L269.37-12.5Q269.37-16.4 270.9-19.45 272.42-22.5 275.27-24.25 278.12-26 281.97-26L281.97-26Q285.87-26 288.7-24.25 291.52-22.5 293.05-19.45 294.57-16.4 294.57-12.5L294.57-12.5Q294.57-8.5 293.05-5.45 291.52-2.4 288.7-0.7 285.87 1 281.97 1L281.97 1Q278.12 1 275.27-0.7 272.42-2.4 270.9-5.45 269.37-8.5 269.37-12.5ZM289.17-11.8L289.17-11.8Q289.17-15.15 288.42-17.88 287.67-20.6 286.07-22.23 284.47-23.85 281.87-23.85L281.87-23.85Q279.22-23.85 277.65-22.25 276.07-20.65 275.42-18 274.77-15.35 274.77-12.15L274.77-12.15Q274.77-9.25 275.52-6.73 276.27-4.2 277.9-2.68 279.52-1.15 282.07-1.15L282.07-1.15Q284.77-1.15 286.32-2.65 287.87-4.15 288.52-6.6 289.17-9.05 289.17-11.8ZM306.52 0.8L306.52 0.8Q304.92 0.8 303.62 0.2 302.32-0.4 301.6-1.88 300.87-3.35 300.87-5.95L300.87-5.95 300.87-21.9 297.37-21.9Q297.07-22.45 297.05-23.03 297.02-23.6 297.12-24.15L297.12-24.15Q299.22-24.15 300.27-24.7 301.32-25.25 301.9-26.6 302.47-27.95 303.12-30.25L303.12-30.25 305.77-30.25 305.77-24.65 311.02-24.65Q311.72-23.2 311.02-21.9L311.02-21.9 305.77-21.9 305.77-7.2Q305.77-4.9 306-3.73 306.22-2.55 306.77-2.13 307.32-1.7 308.27-1.7L308.27-1.7Q309.07-1.7 309.82-2 310.57-2.3 311.27-2.7L311.27-2.7Q311.97-2.25 312.02-1.2L312.02-1.2Q311.47-0.55 310.02 0.13 308.57 0.8 306.52 0.8Z" opacity="1" transform="matrix(1,0,0,1,0,0)" fill="black" class="wordmark-text-0" id="SvgjsPath5673"></path></svg></g></svg></g></svg></g></svg></g><g transform="matrix(1,0,0,1,130.9192615887319,0)"><svg viewBox="0 0 133.68147682253615 162.74266743613097" height="162.74266743613097" width="133.68147682253615"><g><svg xmlns="http://www.w3.org/2000/svg" viewBox="64 32 368 448" x="0" y="0" height="162.74266743613097" width="133.68147682253615" class="icon-icon-0" data-fill-palette-color="accent" id="SvgjsSvg5672"><g fill="black"><path d="M228.739 306.767L242.257 330.257 218.766 316.738A8 8 0 0 0 206.922 322.151L200 357.907 193.078 322.151A8 8 0 0 0 181.234 316.738L157.743 330.257 171.261 306.767A8 8 0 0 0 166.861 295.187L145.3 288 166.86 280.813A8 8 0 0 0 171.26 269.233L157.742 245.743 181.233 259.262A8 8 0 0 0 193.077 253.849L200 218.093 206.922 253.849A8 8 0 0 0 218.766 259.262L242.257 245.743 228.739 269.233A8 8 0 0 0 233.139 280.813L254.7 288 233.14 295.187A8 8 0 0 0 228.74 306.767ZM304 166.987V425.013A32.12 32.12 0 0 0 281.012 448H118.988A32.12 32.12 0 0 0 96 425.013V166.987A32.12 32.12 0 0 0 118.988 144H281.012A32.12 32.12 0 0 0 304 166.987M272 208H288V192H272ZM272 264H288V248H272ZM232 184H248V168H232ZM152 208H168V192H152ZM112 192H128V176H112ZM112 264H128V248H112ZM128 376H112V392H128ZM176 400H160V416H176ZM248 416H232V432H248ZM270.934 348.01L247.489 307.271 282.53 295.59A8 8 0 0 0 282.53 280.41L247.489 268.729 270.934 227.99A8 8 0 0 0 260.01 217.066L220.5 239.8 207.854 174.475A8 8 0 0 0 192.146 174.475L179.5 239.8 139.99 217.062A8 8 0 0 0 129.066 227.986L152.511 268.725 117.47 280.41A8 8 0 0 0 117.47 295.59L152.511 307.271 129.066 348.01A8 8 0 0 0 139.99 358.934L179.5 336.2 192.146 401.525A8 8 0 0 0 207.854 401.525L220.5 336.2 260.01 358.938A8 8 0 0 0 270.934 348.014ZM296 376H280V392H296ZM336 128V464A16.02 16.02 0 0 1 320 480H80A16.02 16.02 0 0 1 64 464V128A16.02 16.02 0 0 1 80 112H320A16.02 16.02 0 0 1 336 128M320 160A8 8 0 0 0 312 152 16.02 16.02 0 0 1 296 136 8 8 0 0 0 288 128H112A8 8 0 0 0 104 136 16.02 16.02 0 0 1 88 152 8 8 0 0 0 80 160V432A8 8 0 0 0 88 440 16.02 16.02 0 0 1 104 456 8 8 0 0 0 112 464H288A8 8 0 0 0 296 456 16.02 16.02 0 0 1 312 440 8 8 0 0 0 320 432ZM416 32H176A16.02 16.02 0 0 0 160 48V96H176V80A8 8 0 0 1 184 72 16 16 0 0 0 200 56 8 8 0 0 1 208 48H384A8 8 0 0 1 392 56 16 16 0 0 0 408 72 8 8 0 0 1 416 80V352A8 8 0 0 1 408 360 16 16 0 0 0 392 376 8 8 0 0 1 384 384H352V400H416A16.02 16.02 0 0 0 432 384V48A16.02 16.02 0 0 0 416 32M352 368H377A32.09 32.09 0 0 1 400 345V87A32.08 32.08 0 0 1 377 64H215A32.09 32.09 0 0 1 192 87V96H320A32.036 32.036 0 0 1 352 128Z" fill="black"></path></g></svg><g></g></g></svg></g><g></g></svg></g><defs><mask></mask></defs></svg><rect width="395.52" height="223.7253348648549" fill="black" stroke="none" visibility="hidden"></rect></g></mask></svg><rect width="395.52" height="223.7253348648549" fill="black" stroke="none" visibility="hidden"></rect></g></mask><linearGradient x1="0.054" x2="0.941" y1="0.5" y2="0.5" id="4d221997-adf4-4ea7-aaba-858404e97c14"><stop stop-color="#9c7945" offset="0"></stop><stop stop-color="#faf3aa" offset="0.498"></stop><stop stop-color="#9c7945" offset="1"></stop></linearGradient><rect width="395.52" height="223.7253348648549" fill="#000000" mask="url(#c66429a3-b8b5-4629-9c2c-0a5c6de23f37)" data-fill-palette-color="accent"></rect></svg><rect width="395.52" height="223.7253348648549" fill="none" stroke="none" visibility="hidden"></rect></g></svg></g></svg>