<svg width="71" height="70" viewBox="0 0 71 70" fill="none" xmlns="http://www.w3.org/2000/svg">
<circle cx="35.2991" cy="35" r="35" fill="#EA7100"/>
<g clip-path="url(#clip0_38_45)">
<path fill-rule="evenodd" clip-rule="evenodd" d="M38.0466 12.5C39.1888 12.5 40.2998 12.8725 41.2111 13.561C42.1225 14.2494 42.7844 15.2163 43.0966 16.315L43.1916 16.7175L46.8191 34.855C46.9909 35.7148 47.3857 36.5144 47.964 37.1735C48.5424 37.8326 49.2839 38.328 50.1141 38.61L50.5091 38.725L54.7491 39.785C55.6254 40.0041 56.3932 40.5322 56.9113 41.2721C57.4293 42.012 57.6629 42.9141 57.5691 43.8125L57.5166 44.16L55.7816 52.8325C55.6525 53.4784 55.3969 54.0924 55.0298 54.6392C54.6626 55.186 54.191 55.6549 53.642 56.019C53.0931 56.383 52.4776 56.635 51.831 56.7604C51.1844 56.8859 50.5194 56.8823 49.8741 56.75L49.5091 56.66L41.8666 54.475C39.2431 53.7262 36.9366 52.1397 35.2991 49.9575C33.7945 51.9633 31.7213 53.4702 29.3491 54.2825L28.7341 54.475L21.0916 56.66C20.4582 56.8408 19.7952 56.8947 19.1409 56.8185C18.4865 56.7424 17.8537 56.5376 17.2787 56.2161C16.7037 55.8946 16.1979 55.4626 15.7904 54.945C15.3829 54.4274 15.0817 53.8344 14.9041 53.2L14.8166 52.8325L13.0816 44.1575C12.9046 43.2718 13.0531 42.3519 13.5 41.567C13.9469 40.7821 14.6621 40.1848 15.5141 39.885L15.8491 39.785L20.0891 38.725C20.9396 38.5123 21.7191 38.0797 22.3497 37.4707C22.9802 36.8617 23.4396 36.0975 23.6816 35.255L23.7791 34.855L27.4041 16.7175C27.5703 15.8882 27.9343 15.1114 28.4652 14.453C28.9961 13.7947 29.6782 13.2744 30.4534 12.9364C31.2287 12.5983 32.0741 12.4526 32.9178 12.5116C33.7615 12.5705 34.5784 12.8324 35.2991 13.275C36.0991 12.785 37.0391 12.5 38.0466 12.5ZM49.8141 43.705L48.1766 51.08L50.8791 51.8525L52.3791 44.3475L49.8141 43.705ZM20.7841 43.705L18.2191 44.3475L19.7191 51.8525L22.4216 51.0775L20.7841 43.705ZM38.0466 17.5C37.9812 17.5006 37.9186 17.5269 37.8723 17.5732C37.8261 17.6195 37.7998 17.682 37.7991 17.7475V42.4575C37.7988 44.01 38.2804 45.5244 39.1773 46.7916C40.0742 48.0589 41.3423 49.0165 42.8066 49.5325L43.3591 49.7025L45.1941 41.45C43.5072 39.9963 42.3537 38.0211 41.9166 35.8375L38.2916 17.7C38.2801 17.6435 38.2494 17.5928 38.2048 17.5563C38.1601 17.5199 38.1042 17.5 38.0466 17.5ZM32.5516 17.5C32.4944 17.5005 32.4391 17.5207 32.395 17.5571C32.3509 17.5935 32.3206 17.6439 32.3091 17.7L28.6816 35.8375C28.2452 38.0207 27.0926 39.9959 25.4066 41.45L27.2391 49.7025L27.3591 49.6675C28.9261 49.2199 30.3046 48.2741 31.2861 46.9732C32.2677 45.6723 32.7988 44.0871 32.7991 42.4575V17.7475C32.7985 17.6816 32.7718 17.6187 32.725 17.5723C32.6782 17.526 32.615 17.5 32.5491 17.5H32.5516Z" fill="white"/>
</g>
<defs>
<clipPath id="clip0_38_45">
<rect width="60" height="60" fill="white" transform="translate(5.29913 5)"/>
</clipPath>
</defs>
</svg>
