<svg width="70" height="70" viewBox="0 0 70 70" fill="none" xmlns="http://www.w3.org/2000/svg">
<circle cx="35" cy="35" r="35" fill="#F00100"/>
<g clip-path="url(#clip0_38_33)">
<path d="M28.745 19.4826C32.295 14.7226 37.6325 13.3326 42.5425 14.6701C47.8425 16.1126 52.5025 20.6651 54.05 27.0051C54.13 27.3301 54.1992 27.6551 54.2575 27.9801C52.0236 27.1841 49.5937 27.1228 47.3225 27.8051C44.105 25.4251 40.12 25.0251 36.5775 26.3301C32.14 27.9676 28.675 32.1201 27.8725 37.3451C26.8475 44.0351 30.9225 50.0451 36.685 55.1551L37.655 55.9951C36.8725 56.0501 36.0775 55.9276 35.3175 55.7651C34.927 55.6811 34.5385 55.5877 34.1525 55.4851L32.81 55.1101C20.875 51.7526 12.885 46.5001 10.5925 38.6501C8.7625 32.3851 10.5225 26.1126 14.3925 22.2126C17.9775 18.6001 23.2925 17.1351 28.745 19.4826ZM32.815 38.1026C33.885 31.1226 41.9575 27.6826 46.1025 33.6726C46.1422 33.7283 46.2023 33.766 46.2697 33.7777C46.3371 33.7894 46.4063 33.7741 46.4625 33.7351C52.405 29.5251 58.8125 35.5176 57.43 42.4426C56.63 46.4592 52.905 49.7926 46.255 52.4426L45.1675 52.8676L44.51 53.1376C43.9425 53.3601 43.3425 53.5376 42.8 53.4426C42.26 53.3476 41.7575 52.9726 41.3 52.5726L40.525 51.8726C34.7417 46.8959 32.1717 42.3059 32.815 38.1026Z" fill="white"/>
</g>
<defs>
<clipPath id="clip0_38_33">
<rect width="60" height="60" fill="white" transform="translate(5 5)"/>
</clipPath>
</defs>
</svg>
