<svg width="71" height="70" viewBox="0 0 71 70" fill="none" xmlns="http://www.w3.org/2000/svg">
<circle cx="35.8259" cy="35" r="35" fill="#7800E1"/>
<g clip-path="url(#clip0_38_54)">
<path d="M62.7009 35C62.7009 40.3154 61.1247 45.5114 58.1716 49.9309C55.2186 54.3505 51.0213 57.7952 46.1105 59.8293C41.1997 61.8634 35.7961 62.3956 30.5828 61.3586C25.3696 60.3216 20.5809 57.762 16.8224 54.0035C13.0638 50.245 10.5043 45.4563 9.46727 40.2431C8.4303 35.0298 8.96251 29.6261 10.9966 24.7154C13.0307 19.8046 16.4754 15.6073 20.8949 12.6543C25.3145 9.70119 30.5105 8.125 35.8259 8.125V35" stroke="white" stroke-width="5.25" stroke-linecap="round" stroke-linejoin="round"/>
<path d="M46.9892 16.0451C46.0135 16.0438 45.0574 16.3193 44.232 16.8397C43.4067 17.3601 42.7459 18.104 42.3265 18.9849C41.9071 19.8659 41.7463 20.8478 41.8627 21.8165C41.9791 22.7853 42.368 23.7011 42.9842 24.4576L51.2529 34.1626L59.4404 24.5539L59.4817 24.5076L59.5217 24.4576C59.9692 23.9184 60.3023 23.2937 60.5005 22.6216C60.6988 21.9494 60.7581 21.244 60.6749 20.5482C60.5917 19.8524 60.3676 19.1808 60.0164 18.5744C59.6652 17.968 59.1941 17.4395 58.632 17.0211C58.0699 16.6027 57.4284 16.3031 56.7468 16.1406C56.0651 15.9782 55.3575 15.9562 54.6671 16.0761C53.9766 16.196 53.3179 16.4553 52.7309 16.8381C52.1439 17.2208 51.641 17.7192 51.2529 18.3026C50.781 17.6075 50.1463 17.0384 49.4039 16.6449C48.6616 16.2514 47.8343 16.0455 46.9942 16.0451H46.9892Z" stroke="white" stroke-width="3.25" stroke-linecap="round" stroke-linejoin="round"/>
</g>
<defs>
<clipPath id="clip0_38_54">
<rect width="60" height="60" fill="white" transform="translate(5.82587 5)"/>
</clipPath>
</defs>
</svg>
