<svg width="45" height="43" viewBox="0 0 45 43" fill="none" xmlns="http://www.w3.org/2000/svg">
<path d="M7.5 2.8667C6.30653 2.8667 5.16193 3.31973 4.31802 4.12614C3.47411 4.93255 3 6.02627 3 7.1667V28.6667C3 31.7079 4.26428 34.6244 6.51472 36.7749C8.76516 38.9253 11.8174 40.1334 15 40.1334V37.2667C12.6131 37.2667 10.3239 36.3606 8.63604 34.7478C6.94821 33.135 6 30.9476 6 28.6667V20.0667H16.5C17.6935 20.0667 18.8381 19.6137 19.682 18.8073C20.5259 18.0009 21 16.9071 21 15.7667V7.1667C21 6.02627 20.5259 4.93255 19.682 4.12614C18.8381 3.31973 17.6935 2.8667 16.5 2.8667H7.5ZM28.5 2.8667C27.3065 2.8667 26.1619 3.31973 25.318 4.12614C24.4741 4.93255 24 6.02627 24 7.1667V28.6667C24 31.7079 25.2643 34.6244 27.5147 36.7749C29.7652 38.9253 32.8174 40.1334 36 40.1334V37.2667C33.6131 37.2667 31.3239 36.3606 29.636 34.7478C27.9482 33.135 27 30.9476 27 28.6667V20.0667H37.5C38.6935 20.0667 39.8381 19.6137 40.682 18.8073C41.5259 18.0009 42 16.9071 42 15.7667V7.1667C42 6.02627 41.5259 4.93255 40.682 4.12614C39.8381 3.31973 38.6935 2.8667 37.5 2.8667H28.5Z" fill="#FFD49B"/>
</svg>
